  0
SECTION
  2
HEADER
  9
$ACADVER
  1
AC1014
  9
$HANDSEED
  5
FFFF
  9
$MEASUREMENT
 70
     1
  0
ENDSEC
  0
SECTION
  2
TABLES
  0
TABLE
  2
VPORT
  5
8
330
0
100
AcDbSymbolTable
 70
     4
  0
VPORT
  5
2E
330
8
100
AcDbSymbolTableRecord
100
AcDbViewportTableRecord
  2
*ACTIVE
 70
     0
 10
0.0
 20
0.0
 11
1.0
 21
1.0
 12
210.0
 22
148.5
 13
0.0
 23
0.0
 14
10.0
 24
10.0
 15
10.0
 25
10.0
 16
0.0
 26
0.0
 36
1.0
 17
0.0
 27
0.0
 37
0.0
 40
341.0
 41
1.24
 42
50.0
 43
0.0
 44
0.0
 50
0.0
 51
0.0
 71
     0
 72
   100
 73
     1
 74
     3
 75
     0
 76
     0
 77
     0
 78
     0
  0
ENDTAB
  0
TABLE
  2
LTYPE
  5
5
330
0
100
AcDbSymbolTable
 70
     1
  0
LTYPE
  5
14
330
5
100
AcDbSymbolTableRecord
100
AcDbLinetypeTableRecord
  2
BYBLOCK
 70
     0
  3

 72
    65
 73
     0
 40
0.0
  0
LTYPE
  5
15
330
5
100
AcDbSymbolTableRecord
100
AcDbLinetypeTableRecord
  2
BYLAYER
 70
     0
  3

 72
    65
 73
     0
 40
0.0
  0
LTYPE
  5
16
330
5
100
AcDbSymbolTableRecord
100
AcDbLinetypeTableRecord
  2
CONTINUOUS
 70
     0
  3
Solid line
 72
    65
 73
     0
 40
0.0
  0
ENDTAB
  0
TABLE
  2
LAYER
  5
2
100
AcDbSymbolTable
 70
2
  0
LAYER
  5
50
100
AcDbSymbolTableRecord
100
AcDbLayerTableRecord
  2
0
 70
0
  6
CONTINUOUS
  0
LAYER
  5
51
100
AcDbSymbolTableRecord
100
AcDbLayerTableRecord
  2
Calque_1
 70
0
  6
CONTINUOUS
  0
ENDTAB
  0
TABLE
  2
STYLE
  5
3
330
0
100
AcDbSymbolTable
 70
     1
  0
STYLE
  5
11
330
3
100
AcDbSymbolTableRecord
100
AcDbTextStyleTableRecord
  2
STANDARD
 70
     0
 40
0.0
 41
1.0
 50
0.0
 71
     0
 42
2.5
  3
txt
  4

  0
ENDTAB
  0
TABLE
  2
VIEW
  5
6
330
0
100
AcDbSymbolTable
 70
     0
  0
ENDTAB
  0
TABLE
  2
UCS
  5
7
330
0
100
AcDbSymbolTable
 70
     0
  0
ENDTAB
  0
TABLE
  2
APPID
  5
9
330
0
100
AcDbSymbolTable
 70
     2
  0
APPID
  5
12
330
9
100
AcDbSymbolTableRecord
100
AcDbRegAppTableRecord
  2
ACAD
 70
     0
  0
ENDTAB
  0
TABLE
  2
DIMSTYLE
  5
A
330
0
100
AcDbSymbolTable
 70
     1
  0
DIMSTYLE
105
27
330
A
100
AcDbSymbolTableRecord
100
AcDbDimStyleTableRecord
  2
ISO-25
 70
     0
  3

  4

  5

  6

  7

 40
1.0
 41
2.5
 42
0.625
 43
3.75
 44
1.25
 45
0.0
 46
0.0
 47
0.0
 48
0.0
140
2.5
141
2.5
142
0.0
143
0.03937007874016
144
1.0
145
0.0
146
1.0
147
0.625
 71
     0
 72
     0
 73
     0
 74
     0
 75
     0
 76
     0
 77
     1
 78
     8
170
     0
171
     3
172
     1
173
     0
174
     0
175
     0
176
     0
177
     0
178
     0
270
     2
271
     2
272
     2
273
     2
274
     3
340
11
275
     0
280
     0
281
     0
282
     0
283
     0
284
     8
285
     0
286
     0
287
     3
288
     0
  0
ENDTAB
  0
TABLE
  2
BLOCK_RECORD
  5
1
330
0
100
AcDbSymbolTable
 70
     1
  0
BLOCK_RECORD
  5
1F
330
1
100
AcDbSymbolTableRecord
100
AcDbBlockTableRecord
  2
*MODEL_SPACE
  0
BLOCK_RECORD
  5
1B
330
1
100
AcDbSymbolTableRecord
100
AcDbBlockTableRecord
  2
*PAPER_SPACE
  0
ENDTAB
  0
ENDSEC
  0
SECTION
  2
BLOCKS
  0
BLOCK
  5
20
330
1F
100
AcDbEntity
  8
0
100
AcDbBlockBegin
  2
*MODEL_SPACE
 70
     0
 10
0.0
 20
0.0
 30
0.0
  3
*MODEL_SPACE
  1

  0
ENDBLK
  5
21
330
1F
100
AcDbEntity
  8
0
100
AcDbBlockEnd
  0
BLOCK
  5
1C
330
1B
100
AcDbEntity
 67
     1
  8
0
100
AcDbBlockBegin
  2
*PAPER_SPACE
  1

  0
ENDBLK
  5
1D
330
1B
100
AcDbEntity
 67
     1
  8
0
100
AcDbBlockEnd
  0
ENDSEC
  0
SECTION
  2
ENTITIES
  0
LWPOLYLINE
  5
100
100
AcDbEntity
  8
Calque_1
 62
7
100
AcDbPolyline
 90
145
 70
1
 10
-0.548527
 20
0.017160
 30
0.0
 10
-0.811255
 20
0.052325
 30
0.0
 10
-0.987328
 20
0.097961
 30
0.0
 10
-1.098550
 20
0.162392
 30
0.0
 10
-1.166727
 20
0.253973
 30
0.0
 10
-1.198663
 20
0.358875
 30
0.0
 10
-1.216418
 20
0.580448
 30
0.0
 10
-1.223897
 20
1.021166
 30
0.0
 10
-1.225000
 20
1.783420
 30
0.0
 10
-1.222302
 20
2.447291
 30
0.0
 10
-1.214905
 20
2.895630
 30
0.0
 10
-1.201949
 20
3.158520
 30
0.0
 10
-1.182569
 20
3.266159
 30
0.0
 10
-1.112950
 20
3.355313
 30
0.0
 10
-1.010450
 20
3.444185
 30
0.0
 10
-0.886382
 20
3.524308
 30
0.0
 10
-0.752060
 20
3.587272
 30
0.0
 10
-0.562799
 20
3.673942
 30
0.0
 10
-0.377148
 20
3.787198
 30
0.0
 10
-0.202825
 20
3.921705
 30
0.0
 10
-0.047548
 20
4.072158
 30
0.0
 10
0.040788
 20
4.175056
 30
0.0
 10
0.098789
 20
4.262150
 30
0.0
 10
0.136329
 20
4.351755
 30
0.0
 10
0.163280
 20
4.462104
 30
0.0
 10
0.184350
 20
4.620064
 30
0.0
 10
0.183413
 20
4.775907
 30
0.0
 10
0.159804
 20
4.938241
 30
0.0
 10
0.112860
 20
5.115646
 30
0.0
 10
0.034021
 20
5.265252
 30
0.0
 10
-0.107793
 20
5.436025
 30
0.0
 10
-0.295624
 20
5.610212
 30
0.0
 10
-0.512514
 20
5.770091
 30
0.0
 10
-0.674414
 20
5.886141
 30
0.0
 10
-0.809102
 20
6.008879
 30
0.0
 10
-0.927283
 20
6.149426
 30
0.0
 10
-1.039659
 20
6.318957
 30
0.0
 10
-1.138696
 20
6.506550
 30
0.0
 10
-1.197310
 20
6.685535
 30
0.0
 10
-1.221877
 20
6.884925
 30
0.0
 10
-1.218773
 20
7.133732
 30
0.0
 10
-1.206417
 20
7.311081
 30
0.0
 10
-1.185506
 20
7.431985
 30
0.0
 10
-1.146108
 20
7.533049
 30
0.0
 10
-1.078294
 20
7.650764
 30
0.0
 10
-1.030171
 20
7.731733
 30
0.0
 10
-0.990762
 20
7.803728
 30
0.0
 10
-0.964134
 20
7.858959
 30
0.0
 10
-0.954355
 20
7.889552
 30
0.0
 10
-0.945318
 20
7.917492
 30
0.0
 10
-0.920712
 20
7.965357
 30
0.0
 10
-0.884297
 20
8.026458
 30
0.0
 10
-0.839828
 20
8.094106
 30
0.0
 10
-0.788421
 20
8.173411
 30
0.0
 10
-0.733116
 20
8.266290
 30
0.0
 10
-0.680554
 20
8.361173
 30
0.0
 10
-0.637379
 20
8.446461
 30
0.0
 10
-0.592459
 20
8.529152
 30
0.0
 10
-0.535148
 20
8.616923
 30
0.0
 10
-0.472813
 20
8.699276
 30
0.0
 10
-0.412823
 20
8.765739
 30
0.0
 10
-0.378665
 20
8.799098
 30
0.0
 10
-0.344506
 20
8.832428
 30
0.0
 10
-0.310348
 20
8.865787
 30
0.0
 10
-0.276189
 20
8.899145
 30
0.0
 10
-0.198882
 20
8.896323
 30
0.0
 10
-0.121574
 20
8.893501
 30
0.0
 10
-0.044267
 20
8.890679
 30
0.0
 10
0.033041
 20
8.887856
 30
0.0
 10
0.257170
 20
8.876003
 30
0.0
 10
0.404347
 20
8.850321
 30
0.0
 10
0.493938
 20
8.805278
 30
0.0
 10
0.545306
 20
8.734892
 30
0.0
 10
0.559182
 20
8.682088
 30
0.0
 10
0.547329
 20
8.616274
 30
0.0
 10
0.502496
 20
8.516254
 30
0.0
 10
0.417434
 20
8.360835
 30
0.0
 10
0.346576
 20
8.234399
 30
0.0
 10
0.275785
 20
8.106073
 30
0.0
 10
0.213270
 20
7.990841
 30
0.0
 10
0.167241
 20
7.903691
 30
0.0
 10
0.126223
 20
7.829128
 30
0.0
 10
0.077354
 20
7.748102
 30
0.0
 10
0.026758
 20
7.670406
 30
0.0
 10
-0.019439
 20
7.605806
 30
0.0
 10
-0.072467
 20
7.528307
 30
0.0
 10
-0.105135
 20
7.452756
 30
0.0
 10
-0.123489
 20
7.359115
 30
0.0
 10
-0.133576
 20
7.227346
 30
0.0
 10
-0.137252
 20
7.092810
 30
0.0
 10
-0.128814
 20
6.997701
 30
0.0
 10
-0.103673
 20
6.918143
 30
0.0
 10
-0.057244
 20
6.830259
 30
0.0
 10
0.057017
 20
6.690136
 30
0.0
 10
0.246739
 20
6.527209
 30
0.0
 10
0.506004
 20
6.346050
 30
0.0
 10
0.828890
 20
6.151204
 30
0.0
 10
0.946503
 20
6.081072
 30
0.0
 10
1.050265
 20
6.013028
 30
0.0
 10
1.128940
 20
5.954806
 30
0.0
 10
1.171293
 20
5.914222
 30
0.0
 10
1.212331
 20
5.490832
 30
0.0
 10
1.226329
 20
4.652773
 30
0.0
 10
1.213098
 20
3.814743
 30
0.0
 10
1.172450
 20
3.391438
 30
0.0
 10
1.071334
 20
3.298163
 30
0.0
 10
0.903170
 20
3.187927
 30
0.0
 10
0.709884
 20
3.085368
 30
0.0
 10
0.533397
 20
3.015179
 30
0.0
 10
0.342143
 20
2.929778
 30
0.0
 10
0.146456
 20
2.795102
 30
0.0
 10
-0.026378
 20
2.633135
 30
0.0
 10
-0.149075
 20
2.465833
 30
0.0
 10
-0.227819
 20
2.290319
 30
0.0
 10
-0.262719
 20
2.124570
 30
0.0
 10
-0.255062
 20
1.952640
 30
0.0
 10
-0.206139
 20
1.758500
 30
0.0
 10
-0.127107
 20
1.578865
 30
0.0
 10
-0.017331
 20
1.421752
 30
0.0
 10
0.118393
 20
1.292748
 30
0.0
 10
0.275267
 20
1.197414
 30
0.0
 10
0.339217
 20
1.167442
 30
0.0
 10
0.429881
 20
1.124403
 30
0.0
 10
0.535190
 20
1.074026
 30
0.0
 10
0.643074
 20
1.022097
 30
0.0
 10
0.751891
 20
0.970366
 30
0.0
 10
0.859739
 20
0.920582
 30
0.0
 10
0.954161
 20
0.878446
 30
0.0
 10
1.022701
 20
0.849547
 30
0.0
 10
1.124052
 20
0.794062
 30
0.0
 10
1.186296
 20
0.718031
 30
0.0
 10
1.214366
 20
0.611492
 30
0.0
 10
1.213195
 20
0.464454
 30
0.0
 10
1.182475
 20
0.309232
 30
0.0
 10
1.114050
 20
0.196710
 30
0.0
 10
0.998796
 20
0.117378
 30
0.0
 10
0.827590
 20
0.061723
 30
0.0
 10
0.554941
 20
0.023398
 30
0.0
 10
0.180206
 20
0.000820
 30
0.0
 10
-0.214865
 20
-0.003414
 30
0.0
 10
-0.548520
 20
0.013802
 30
0.0
 10
-0.548521
 20
0.013802
 30
0.0
 10
-0.548523
 20
0.013802
 30
0.0
 10
-0.548524
 20
0.013774
 30
0.0
 10
-0.548527
 20
0.017160
 30
0.0
  0
ENDSEC
  0
SECTION
  2
OBJECTS
  0
DICTIONARY
  5
C
330
0
100
AcDbDictionary
  3
ACAD_GROUP
350
D
  3
ACAD_MLINESTYLE
350
17
  0
DICTIONARY
  5
D
330
C
100
AcDbDictionary
  0
DICTIONARY
  5
1A
330
C
100
AcDbDictionary
  0
DICTIONARY
  5
17
330
C
100
AcDbDictionary
  3
STANDARD
350
18
  0
DICTIONARY
  5
19
330
C
100
AcDbDictionary
  0
ENDSEC
  0
EOF
